<?xml version="1.0" standalone="no"?>
<!DOCTYPE svg PUBLIC "-//W3C//DTD SVG 20010904//EN"
 "http://www.w3.org/TR/2001/REC-SVG-20010904/DTD/svg10.dtd">
<svg version="1.0" xmlns="http://www.w3.org/2000/svg"
 width="610.000000pt" height="161.000000pt" viewBox="0 0 610.000000 161.000000"
 preserveAspectRatio="xMidYMid meet">

<g transform="translate(0.000000,161.000000) scale(0.100000,-0.100000)"
fill="#000000" stroke="none">
<path d="M0 805 l0 -805 3050 0 3050 0 0 805 0 805 -3050 0 -3050 0 0 -805z
m3988 392 c88 -58 148 -225 143 -392 -3 -72 6 -72 10 0 2 28 9 56 17 64 7 8
10 21 6 30 -4 9 -9 30 -11 47 -7 46 15 245 29 261 9 12 41 14 158 11 139 -3
149 -4 186 -29 23 -16 51 -48 69 -80 28 -50 30 -62 30 -154 0 -91 -3 -105 -27
-149 -16 -27 -28 -58 -28 -70 0 -11 14 -66 30 -120 31 -102 38 -160 20 -171
-6 -3 -46 -7 -90 -7 -84 -2 -112 10 -125 53 -9 27 -18 23 -35 -14 l-15 -32
-85 0 c-81 0 -85 1 -97 25 -6 14 -15 78 -19 143 -5 88 -10 117 -20 117 -8 0
-14 -10 -14 -23 0 -34 -47 -157 -77 -200 -41 -58 -84 -80 -149 -75 -58 5 -93
28 -120 80 -34 65 -44 432 -14 518 19 54 53 80 105 80 38 0 47 -4 68 -32 13
-18 27 -42 32 -53 10 -29 7 -380 -5 -409 -15 -39 -47 -66 -80 -66 -16 0 -30
-4 -30 -10 0 -13 37 -50 50 -50 30 0 69 33 84 69 37 93 45 343 16 479 -23 105
-106 154 -198 116 -81 -34 -112 -121 -112 -321 0 -126 11 -199 39 -268 20 -47
17 -75 -8 -75 -96 0 -151 373 -85 572 22 66 65 121 115 147 65 33 179 27 237
-12z m1727 14 c83 -37 129 -129 145 -287 17 -160 -14 -350 -68 -424 -11 -14
-34 -36 -53 -48 -28 -20 -43 -23 -87 -20 -56 5 -91 29 -117 79 -24 46 -34 176
-26 350 6 146 10 170 29 201 24 39 39 48 81 48 36 0 70 -26 87 -66 17 -41 20
-368 3 -427 -12 -43 -48 -72 -79 -62 -15 5 -20 2 -20 -14 0 -45 55 -65 98 -35
45 31 68 97 82 231 19 183 -19 365 -85 409 -41 27 -123 29 -162 5 -68 -43 -99
-165 -90 -355 6 -118 17 -179 41 -238 19 -45 12 -68 -20 -68 -28 0 -62 48 -90
130 -26 77 -27 328 -2 411 25 78 75 148 128 176 55 29 147 31 205 4z m-4926
-5 c17 -21 19 -139 2 -159 -17 -21 -64 -22 -81 -2 -9 11 -8 19 4 37 9 12 16
34 16 49 l0 26 -132 5 c-73 3 -138 4 -145 1 -17 -7 -17 -63 0 -64 6 -1 51 -2
99 -3 77 -1 89 -4 113 -26 l27 -25 -4 -293 c-2 -247 -5 -294 -18 -302 -8 -5
-45 -10 -82 -10 -103 0 -99 -13 -96 288 l3 257 25 0 25 0 3 -242 c2 -225 4
-242 21 -248 10 -3 26 -3 35 1 14 5 16 33 16 251 0 149 -4 252 -10 264 -8 15
-22 19 -63 20 -77 0 -148 14 -158 30 -15 24 -11 126 7 143 22 22 375 24 393 2z
m406 -5 c49 -22 68 -43 94 -101 41 -96 36 -215 -14 -312 l-24 -46 33 -100 c44
-130 52 -175 33 -191 -10 -8 -45 -11 -103 -9 l-89 3 -16 35 c-19 39 -27 38
-49 -5 -14 -29 -18 -30 -91 -33 -112 -4 -109 -10 -109 215 0 156 3 189 17 214
16 28 16 29 -2 43 -18 13 -20 27 -20 144 0 95 4 133 14 145 21 26 270 24 326
-2z m559 13 c19 -7 47 -93 127 -392 68 -255 82 -349 55 -371 -21 -17 -152 -17
-173 0 -7 7 -20 36 -29 66 -14 46 -21 57 -50 69 -18 8 -37 14 -42 14 -5 0 -17
-28 -27 -62 -25 -91 -33 -98 -125 -98 -80 0 -100 9 -100 44 0 25 108 475 145
606 36 126 41 130 131 130 40 0 79 -3 88 -6z m455 -19 c16 -14 48 -55 71 -91
23 -37 45 -62 50 -58 4 5 10 39 12 75 2 37 10 74 17 83 19 23 163 23 182 0 14
-17 33 -504 23 -581 -13 -93 -60 -85 -131 22 -30 44 -58 85 -63 92 -6 7 -10
17 -10 23 0 5 -5 10 -11 10 -5 0 -7 5 -4 10 3 6 1 10 -5 10 -6 0 -8 6 -4 13 4
6 3 9 -1 4 -7 -6 -26 25 -34 55 -10 43 -125 283 -138 291 -5 3 -24 8 -44 12
-45 8 -74 -15 -64 -53 3 -13 8 -155 10 -316 l4 -291 25 -3 25 -3 -2 208 c-2
227 3 253 48 253 14 0 33 -9 43 -19 32 -36 60 -71 56 -71 -3 0 4 -10 15 -22
12 -12 28 -42 37 -67 29 -81 58 -152 89 -215 29 -59 32 -61 80 -72 92 -19 60
-64 -36 -51 -53 7 -69 23 -146 139 -35 54 -68 100 -72 103 -10 6 -17 -30 -30
-149 -6 -46 -15 -82 -23 -87 -7 -5 -49 -8 -93 -7 -105 4 -105 3 -104 218 1
317 13 540 29 550 8 6 50 10 92 10 67 0 80 -3 107 -25z m770 -8 c42 -28 76
-73 87 -114 12 -44 -3 -67 -61 -96 -68 -33 -86 -34 -116 -3 l-24 24 1 -56 1
-55 56 -21 c110 -41 166 -111 167 -209 0 -58 -17 -102 -59 -150 -46 -51 -102
-70 -199 -66 -106 5 -152 35 -201 131 -42 83 -38 101 36 133 86 39 123 33 149
-21 9 -19 20 -34 25 -34 15 0 10 37 -7 51 -12 10 -15 24 -10 55 5 40 5 41 -32
52 -55 17 -114 58 -141 100 -19 28 -24 51 -25 98 -1 84 37 146 114 187 49 25
63 28 126 25 57 -3 79 -9 113 -31z m551 14 c5 -11 10 -49 10 -86 0 -61 -2 -66
-26 -75 -14 -6 -52 -10 -85 -10 -59 0 -60 -1 -74 -34 -17 -39 -36 -50 -60 -32
-20 14 -25 100 -6 119 6 7 49 14 94 17 81 5 82 5 85 33 l3 27 -130 0 -131 0 0
-93 c0 -64 4 -99 14 -112 14 -20 20 -21 184 -24 98 -1 116 -19 110 -102 -2
-33 -9 -64 -14 -69 -6 -6 -41 -13 -77 -17 -79 -7 -74 4 -81 -167 -3 -83 -8
-121 -18 -127 -23 -15 -155 -11 -171 6 -19 18 -32 174 -24 298 4 74 8 94 24
107 19 15 19 16 1 45 -16 26 -18 48 -16 163 2 105 6 135 18 142 8 5 92 10 187
10 160 0 173 -1 183 -19z m1398 -78 c86 -90 121 -132 207 -245 l30 -40 3 -169
3 -169 29 0 29 0 3 318 c2 174 1 323 -1 330 -2 7 -13 12 -25 10 -14 -2 -34
-26 -61 -71 -25 -42 -48 -70 -62 -73 -27 -7 -43 2 -43 23 0 26 92 161 118 173
33 15 108 12 125 -4 8 -9 17 -46 21 -90 9 -96 9 -521 0 -590 -11 -83 -14 -86
-99 -86 -99 0 -105 7 -106 118 0 48 -4 123 -7 168 -6 69 -11 86 -37 117 -17
21 -77 99 -135 175 -86 111 -110 137 -130 137 l-25 0 5 -135 c3 -74 5 -220 5
-325 0 -186 0 -190 21 -193 12 -2 24 3 27 10 2 8 1 88 -4 178 -12 222 -2 280
50 280 43 0 159 -150 146 -190 -8 -25 -51 -27 -77 -3 -10 9 -21 13 -25 10 -3
-4 -10 -78 -15 -164 -5 -87 -14 -164 -20 -170 -7 -8 -37 -13 -84 -13 -108 0
-103 -15 -105 335 -1 292 5 409 24 433 5 7 33 12 66 12 l56 0 93 -97z"/>
<path d="M4243 1045 c7 -122 10 -137 30 -129 8 3 12 31 13 84 1 97 16 120 76
120 84 0 128 -56 128 -163 0 -99 -39 -136 -155 -146 l-77 -6 -4 -65 c-2 -36
-6 -102 -9 -147 -6 -83 -1 -98 30 -87 12 5 15 14 10 33 -3 14 -9 64 -13 109
-6 69 -5 85 8 93 8 4 11 9 5 9 -5 0 1 7 14 16 27 20 94 22 116 4 8 -6 20 -27
27 -46 17 -47 27 -43 21 9 -4 36 0 48 25 80 76 95 62 296 -23 335 -14 7 -71
12 -127 12 l-101 0 6 -115z"/>
<path d="M3850 839 c0 -19 5 -41 10 -49 7 -11 9 -2 6 28 -5 53 -16 68 -16 21z"/>
<path d="M3851 664 c0 -11 3 -14 6 -6 3 7 2 16 -1 19 -3 4 -6 -2 -5 -13z"/>
<path d="M4465 670 c-3 -5 -1 -10 4 -10 6 0 11 5 11 10 0 6 -2 10 -4 10 -3 0
-8 -4 -11 -10z"/>
<path d="M4478 638 c-8 -24 15 -127 30 -133 30 -11 33 12 10 61 -13 27 -26 50
-30 52 -4 2 -4 10 -1 18 3 8 3 14 0 14 -3 0 -7 -5 -9 -12z"/>
<path d="M5615 990 c-10 -16 -15 -360 -5 -360 5 0 13 12 17 28 12 43 9 342 -4
342 -1 0 -4 -4 -8 -10z"/>
<path d="M935 1148 c-2 -7 -5 -66 -7 -130 -3 -129 -4 -129 58 -112 19 5 20 9
10 39 -15 43 -5 153 14 165 22 14 77 12 109 -5 73 -37 83 -209 16 -265 -12
-10 -49 -17 -109 -20 l-91 -5 0 -155 0 -155 25 0 25 0 0 118 c0 113 1 120 24
138 24 19 56 24 86 13 25 -10 51 -71 71 -164 18 -90 28 -110 50 -110 20 0 17
31 -7 87 -28 64 -49 133 -49 161 0 13 13 40 29 60 41 53 54 103 49 187 -5 80
-25 123 -68 149 -36 20 -228 24 -235 4z"/>
<path d="M1626 1145 c-8 -21 -8 -65 0 -65 3 0 15 5 26 11 15 8 27 8 45 0 24
-11 24 -10 21 26 -3 37 -4 38 -44 41 -31 2 -43 -1 -48 -13z"/>
<path d="M1557 783 c-2 -5 -7 -21 -11 -38 -4 -16 -21 -74 -37 -129 -31 -98
-30 -123 4 -110 10 3 17 18 18 33 4 94 26 218 40 227 5 3 9 9 9 15 0 11 -17
12 -23 2z"/>
<path d="M1780 725 c0 -9 -11 -20 -25 -25 -33 -13 -32 -26 3 -33 34 -7 52 -41
52 -101 0 -47 22 -78 41 -59 7 7 3 37 -14 94 -14 46 -28 96 -31 112 -7 29 -26
38 -26 12z"/>
<path d="M2419 1148 c0 -7 0 -36 1 -65 2 -60 -13 -93 -40 -93 -11 0 -20 -3
-20 -7 0 -12 93 -163 101 -163 12 0 19 74 19 208 l0 132 -30 0 c-17 0 -30 -5
-31 -12z"/>
<path d="M2800 1149 c-66 -27 -98 -91 -80 -158 13 -49 33 -65 30 -25 -4 57 0
74 28 104 39 45 94 51 145 16 65 -44 78 -28 24 30 -26 29 -42 37 -77 40 -25 2
-56 -1 -70 -7z"/>
<path d="M2946 725 c24 -36 13 -99 -22 -136 -49 -51 -123 -48 -175 7 -30 32
-43 30 -34 -3 27 -109 204 -127 265 -28 27 44 27 117 -1 156 -27 38 -58 41
-33 4z"/>
<path d="M3210 680 l0 -181 33 3 32 3 0 136 c0 99 4 140 13 152 10 11 34 17
80 19 59 3 67 5 67 23 0 19 -8 20 -112 23 l-113 3 0 -181z"/>
</g>
</svg>
